/* XPM */
static char *_171f2feefbc4d9cd4c3b832d5679fbb8ecvdZ1LY88YO6Gd[] = {
/* columns rows colors chars-per-pixel */
"64 64 43 1 ",
"  c #67AE8C",
". c #68AF8D",
"X c #69B08E",
"o c #6CB18F",
"O c #6EB391",
"+ c #6FB492",
"@ c #71B593",
"# c #72B694",
"$ c #74B795",
"% c #76B896",
"& c #78BA98",
"* c #7BBC9A",
"= c #7CBD9B",
"- c #7FBF9D",
"; c #80BF9D",
": c #81C09E",
"> c #83C2A0",
", c #84C2A0",
"< c #87C4A2",
"1 c #88C5A3",
"2 c #8BC7A7",
"3 c #8BC8A7",
"4 c #8CC8A7",
"5 c #8FCBAB",
"6 c #90CBAB",
"7 c #92CCAB",
"8 c #90CBAC",
"9 c #90CCAC",
"0 c #94CCAC",
"q c #98CFAF",
"w c #95CFB1",
"e c #97D1B3",
"r c #9BD1B2",
"t c #9DD2B3",
"y c #9AD3B6",
"u c #9FD3B4",
"i c #9AD4B7",
"p c #9CD5B9",
"a c #A2D5B7",
"s c #A3D6B8",
"d c #A5D7B9",
"f c #A7D8BB",
"g c #A8D9BC",
/* pixels */
"14p9115511111111111111111111111111111111111111111111111111111111",
"22y512wy2111111111,,11111111111111111111111111111111111111111111",
"61223i921111111111$O<1111111111111111111111111111111111111111111",
"2111252111111>@-11#O<1>@;111111111111111111111111111111111111111",
"1111111111111,%&=<=&<-&%:111111111111111111,&,111111111111111111",
"111111111111111%@<111%@<111111111111111,>11: -11,,11111111111111",
"111111111111111<<1111<<1111111111111111#+,1:.-1<#@<1111111111111",
"111111111111111111111111111111111111111:=O;<:,:O*:11111111111111",
"1111111111111111111111111111111111111111,&:111,&:111111111111111",
"1111111111111111<11111111115511111111111111111111111111111111111",
"111111111111111111111112211af21122111111111111111111111111111111",
"11111111111111111111115g011sg215g9111111111111111111111111111111",
"11111111111111111111112qur2702qur4111111111111111111111111111111",
"111111111111111111111111ru2111ru21111111111111111111111111111111",
"1111111111111111111111111111111111111111111111111111111111111111",
"1111111111111111111111111111111111111111111111111111111111111111",
"11111<1111111111111111111111111111111111111111111111111111111111",
"11111<1111111111111111111111111111111111111111111111111111111111",
"1111111111111111111111111111111111111111111111111111111111111111",
"111111111111111111111111111111111111111111111111111111111111111<",
"11111111111111111111111111111111111111111111111111111111111111<%",
"1111111111111111111111111111111111111111111111111111111111,&,1<+",
"111111111111111111111111111111111111111111,>11111111111111:O=><$",
"11111111111111111111111111111111111111<111@+<11<11111111111<@@<<",
"1111111111111111111111111111111111111:O-11@O<1:O;11111111111::11",
"1111295111111111111,%:111111111111111,&%&<==<=%&>111111111111111",
"35114p911351111::11: =11::1111111111111%$<111%$<1111111111111111",
"wy213i612wy2111$O,<:X=1<#+<111111111111<<1111<<11111111111111111",
"25y51223y921111,-o-<><:o*,11111111111111111111111111111111111111",
"1282111282111111,=>111,=>111111111111111111111111111111111111111",
"1111111111111111111111111111111111111111<11111111116611111111111",
"111111111111111111111111111111111111111111111122211df21222111111",
"11111111111111111111111111111111111111111111116g911df216g7111111",
"111111111111111111111111111111111111111111111120ut2662ta02111111",
"111111111111111111111111111111111111111111111111rr2111rr11111111",
"1111<><111111111111111111111111111111111111111111111111111111111",
"<<11:X=11<<11111111111111111111111111111111111111111111111111111",
"&#<1: *11&#<1111111111111111111111111111111111111111111111111111",
"=%&:,%:,&%&<1111111111111111111111111111111111111111111111111111",
"1>O-111>O-111111111111111111111111111111111111111111111111111111",
"11<<1111<<11111111111111112111111111111<<11111111111111111111111",
"11111111111111111111111113y511111111111%#<1111111111111111111111",
"11111111111111111111169215p5118921,%:11@O<1,%:111111111111111111",
"1111111111111111111119e522e525ww21:@&:1%$<:*@:111111111111111111",
"11111111111111111111115i51114i51111<#@<1<1#@<1111111111111111111",
"111111111111111111111122211122211111,,1111,,11111111111111111111",
"11111111111111111111111111111111111111111111111111113w4111111111",
":-<11111111111111111111111111111111111111111111155115p511551111;",
"$O<111111111111111111111111111111111111111111111ee225i512ee211<@",
"&,111111111111111111111111111111111111111111111125i51215i521111<",
",111111111111111111111111111111111111111111111111252111252111111",
"1111111111111111111111111111111111111111111111111111111111111111",
"1111111111111111111111111111111111111111111111111111111111111111",
"1111111111111111111111111111111111111111111111111111111111111111",
"1111111111111111111111111111111111111111111111111111111111111111",
"1111111111111111111111111111111111111111111111111111111111111111",
"1111111111111111111111111111111111111111111111111111<:,111111111",
"111111111111111111111111111111111111111111111111<<11;.-11<<11111",
"11111111111111111111111111111<111111111111111111$#<1; -11$#<1111",
"111111111111111111111111111111111111111111111111-&%:,&,:%&=11111",
"1111111111111111111111111111111111111111111111111:@:111:@:111111",
"1122111111111111111111111111111111111111111111111111111111111111",
"12y5111111111111111111111111111111111111111111111111111111111111",
"14p9119w21111111111111111111111111111111111111111111111111111111"
};
