/* XPM */
static char *b6e24b20a4504c00fa181143a721471fLgiOkYwKSjKbV5ld[] = {
/* columns rows colors chars-per-pixel */
"64 64 183 2 ",
"   c #3E3F2E",
".  c #423D34",
"X  c #3F4D24",
"o  c #3E4629",
"O  c #3F4828",
"+  c #40571D",
"@  c #404E28",
"#  c #405223",
"$  c #435D21",
"%  c #455F29",
"&  c #464A33",
"*  c #525A3B",
"=  c #446324",
"-  c #486426",
";  c #466827",
":  c #46612B",
">  c #4A652A",
",  c #476A29",
"<  c #4A6D2B",
"1  c #526C2E",
"2  c #4A722E",
"3  c #496631",
"4  c #4A6935",
"5  c #4E6C3A",
"6  c #4C7631",
"7  c #4E7C34",
"8  c #4F7739",
"9  c #557533",
"0  c #527B35",
"q  c #587937",
"w  c #567F38",
"e  c #5C7D39",
"r  c #4D4541",
"t  c #564E49",
"y  c #5B584A",
"u  c #5C5C4A",
"i  c #675C5A",
"p  c #527242",
"a  c #557B47",
"s  c #517F54",
"d  c #6A605D",
"f  c #6D6160",
"g  c #4F8137",
"h  c #4F8138",
"j  c #508237",
"k  c #518539",
"l  c #5D833C",
"z  c #548C3E",
"x  c #61843E",
"c  c #4F8A4D",
"v  c #558E41",
"b  c #5C8D40",
"n  c #569042",
"m  c #5B9443",
"M  c #5F9846",
"N  c #53914A",
"B  c #5A934B",
"V  c #4F8C51",
"C  c #54855B",
"Z  c #5E8559",
"A  c #529557",
"S  c #52965B",
"D  c #5C9658",
"F  c #52985E",
"G  c #628740",
"H  c #638A41",
"J  c #6E8D48",
"K  c #609847",
"L  c #6C9449",
"P  c #649C4A",
"I  c #699F4D",
"U  c #729C4E",
"Y  c #618757",
"T  c #618A5E",
"R  c #6A9351",
"E  c #639B52",
"W  c #619A5A",
"Q  c #6AA14E",
"!  c #6EA451",
"~  c #71A653",
"^  c #74AB55",
"/  c #7BA956",
"(  c #7FA65B",
")  c #77AD58",
"_  c #7AAE59",
"`  c #7BB25B",
"'  c #519962",
"]  c #579368",
"[  c #539C6B",
"{  c #638D63",
"}  c #659165",
"|  c #679D67",
" . c #669368",
".. c #69956C",
"X. c #679870",
"o. c #6D9D74",
"O. c #56A173",
"+. c #59A376",
"@. c #5DA67B",
"#. c #60A16B",
"$. c #69A36A",
"%. c #79AA6B",
"&. c #7DB161",
"*. c #6FA976",
"=. c #63A97D",
"-. c #71A277",
";. c #70A873",
":. c #72A47B",
">. c #73AD7C",
",. c #85AC5E",
"<. c #81B55E",
"1. c #81B85F",
"2. c #83B562",
"3. c #89B364",
"4. c #84BB61",
"5. c #89BD65",
"6. c #8CBE69",
"7. c #97BD6D",
"8. c #84BC79",
"9. c #8BC266",
"0. c #8EC569",
"q. c #91C46C",
"w. c #9AC06F",
"e. c #94CB6D",
"r. c #98C771",
"t. c #97CC70",
"y. c #9ACD72",
"u. c #9CD274",
"i. c #A2C975",
"p. c #A0D377",
"a. c #A3D679",
"s. c #A5D97B",
"d. c #A9DC7E",
"f. c #64A681",
"g. c #65AB86",
"h. c #69AB82",
"j. c #67AE8B",
"k. c #69AF8C",
"l. c #76AA83",
"z. c #77AE88",
"x. c #6BB18E",
"c. c #78B481",
"v. c #7AB18B",
"b. c #6DB290",
"n. c #73B694",
"m. c #7DB791",
"M. c #76B997",
"N. c #7CBA95",
"B. c #7BBC9A",
"V. c #87BE86",
"C. c #81BA96",
"Z. c #82BE9A",
"A. c #8FC885",
"S. c #8AC492",
"D. c #83C19E",
"F. c #ACDE81",
"G. c #B2DE83",
"H. c #A0D497",
"J. c #AEE082",
"K. c #B2E385",
"L. c #B7E688",
"P. c #B9E68A",
"I. c #B7E889",
"U. c #BCEC8D",
"Y. c #86C3A1",
"T. c #88C5A3",
"R. c #8CC8A7",
"E. c #8ECAAA",
"W. c #90C6A7",
"Q. c #91CCAD",
"!. c #94CEB0",
"~. c #99D2B5",
"^. c #9CD5B8",
"/. c #A2D3B3",
"(. c #C0EE8F",
"). c #C0EF90",
"_. c #C2F192",
"`. c #C5F394",
"'. c #C5F494",
"]. c #C7F595",
"[. c #B0D6C0",
"{. c #B3D9C3",
"}. c #BCE1CE",
/* pixels */
"^.R.T.T.E.R.T.T.T.T.T.T.T.T.T.T.T.T.T.T.T.T.T.T.T.T.T.T.T.T.T.T.T.T.T.T.T.T.T.T.T.T.T.T.T.T.T.T.T.T.T.T.T.T.T.T.T.T.T.T.T.T.T.T.",
"^.R.R.R.~.!.T.T.T.T.T.T.T.T.T.T.Y.Y.T.T.T.T.T.T.T.T.T.T.T.T.T.Z.Z.Z.Y.T.T.T.T.T.T.T.T.T.T.T.T.T.T.T.T.T.T.T.T.T.T.T.T.T.T.T.T.T.",
"R.T.Q.~.E.R.T.T.T.T.T.T.T.T.T.Y.b.M.T.T.T.T.T.T.T.T.T.T.T.T.Z.p 3 5 C.T.T.T.T.T.T.T.T.T.T.T.T.T.T.T.T.T.T.T.T.T.T.T.T.T.T.T.T.T.",
"T.T.R.E.R.T.T.T.T.T.T.B.n.Y.T.Y.x.M.T.T.B.n.Y.T.T.T.T.T.T.l.Y 7.i.w.Y -.T.T.T.T.T.T.T.T.T.T.T.T.T.T.T.T.T.T.T.T.T.T.T.T.T.T.T.T.",
"T.T.T.T.T.T.T.T.T.T.T.B.n.B.D.Y.M.B.Y.B.B.n.Y.T.T.T.T.T.T.o.9 L.'.U.w ..T.T.T.T.T.D.B.Y.T.T.T.T.T.T.T.T.T.T.T.T.T.T.T.T.T.T.T.T.",
"T.T.T.T.T.T.T.T.T.T.T.T.Y.b.M.T.T.T.Y.b.M.T.T.T.T.T.T.Y.C.;.P P.'.U.Q $.C.D.Y.T.T.B.k.Y.T.T.Y.Y.T.T.T.T.T.T.T.T.T.T.T.T.T.T.T.T.",
"T.T.T.T.T.T.T.T.T.T.T.T.T.Y.Y.T.T.T.T.Y.Y.T.T.T.T.Y.Y.Z.5 L e.).'._.t.U 3 f.M.Y.T.B.x.Y.T.Y.b.B.T.T.T.T.T.T.T.T.T.T.T.T.T.T.T.T.",
"T.T.T.T.T.T.T.T.T.T.T.T.T.T.T.T.T.T.T.T.T.T.T.T.D.$.| W k 2.U.'.'._.u.) h D D $.D.Y.Z.Y.B.n.B.D.T.T.T.T.T.T.T.T.T.T.T.T.T.T.T.T.",
"T.T.T.T.T.T.T.T.T.T.T.T.T.Y.T.T.T.T.T.T.T.Y.c.>.>.6.6.6.) y.'.'.'._.u.4.) 6.6.6.>.>.c.D.B.M.Y.T.T.T.T.T.T.T.T.T.T.T.T.T.T.T.T.T.",
"T.T.T.T.T.T.T.T.T.T.T.T.T.Y.Y.T.T.T.T.T.T.D.B m Q K._._.u.J.'.'.'.`.u.e.u.P.U.L.! m B Z.T.T.T.T.T.T.T.T.T.T.T.T.T.T.T.T.T.T.T.T.",
"T.T.T.T.T.T.T.T.T.T.T.T.T.T.T.T.T.T.T.T.T.D.B ^ e.u.J._.u.J.'.'.'.`.u.e.t.t.t.t.e._ B Z.T.T.T.T.T.T.T.T.T.T.T.T.T.T.T.T.T.T.T.T.",
"T.T.T.T.T.T.T.T.T.T.T.T.T.T.T.T.T.T.T.T.Q./.E 5.U.U.K.a.P._.'.'.'.`.u.d.P.u.e.y.P.q.B Z.T.T.T.T.T.T.T.T.T.T.T.T.T.T.T.T.T.T.T.T.",
"T.T.T.T.T.T.T.T.T.T.T.T.T.T.T.T.T.m.*.*.V.H.r.p.J.J.K.K.`.'.'.'.'.`.K.P.`.K.K.K.J.a.r.A.c.*.*.v.T.T.T.T.T.T.T.T.T.T.T.T.T.T.T.T.",
"T.T.T.T.T.T.T.T.T.T.T.T.T.T.T.T.T.>.z P ^ 9.d.a.e.p.K.'.'.'.'.'.'.'.'.'.'.'._.P.s.d.F.9.) P v *.T.T.T.T.T.T.T.T.T.T.T.T.T.T.T.T.",
"T.T.T.T.T.T.T.T.T.T.T.T.T.T.T.T.D.>.K 0.` v m _ u.(.'.'.'.'.'.'.'.'.'.'.'.`.K.u.U.r.m n ) e.P ;.D.Y.T.T.T.T.T.T.T.T.T.T.T.T.T.T.",
"T.T.T.T.T.T.T.T.T.T.T.T.T.T.T.Z.a ( P.U.e.m 4.a.).'.'.'.'.'.'.'.'.'.'.'._.a.J.U.a.e.6.m 6.U.P.3.p C.T.T.T.T.T.T.T.T.T.T.T.T.T.T.",
"T.T.Y.Y.T.T.T.T.T.T.T.T.T.T.T.D.:.%.5.5.2.2.F.U.`.J.I.'.'.'.'.'.'.'.'.'.'.L.K.F.K.L.K.4.1.5.5.%.-.D.T.T.T.T.T.T.T.T.T.T.T.T.T.T.",
"T.T.Y.Y.T.T.T.T.T.T.T.T.T.T.C.l.S.8.` ` ` 9.U.P.d.s.L.'.'.'.'.'.'.'.'.'.'.P.K.s.d.L._.9.` ` ` 8.S.l.m.T.T.T.T.T.T.T.T.T.T.T.T.T.",
"T.T.T.T.T.T.T.T.T.T.T.T.T.T.o.- 9.F.'.U.r.P K.r.I P.'.'.'._.(.'.'.'.(._.`.u.J.U.! 9.L.I 9.U.`.K.q.>  .T.T.T.T.T.T.T.T.T.T.T.T.T.",
"T.T.T.T.T.T.T.T.T.T.T.T.T.T.o.> G.`.(.~ ) 0.I 6.U.'.'.'.'.y.Q P.'.U.! e.`.u.J.'.U.q.P 9.` Q U.`.L.1 } T.T.T.T.T.T.T.T.T.T.T.T.T.",
"T.T.T.T.T.T.T.T.T.T.T.T.Y.n.z.:.&.q.s.s.F.K.P 6.`.d.s.d.`.d.6.U.'._.9.a.'.P.K.a.2.1.4.e.u.s.s.e.&.:.m.T.T.T.T.T.T.T.T.T.Y.n.B.T.",
"T.T.T.T.T.T.T.T.D.B.Y.T.Y.x.h.-.2.e.d._.U.K.` 4.p.4.` 4.K.K.d._.'.`.F.L.'.L.y.` m ) e.e.J._.F.y.2.-.v.R.E.R.T.T.D.B.Y.T.Y.x.M.T.",
"T.T.T.T.T.T.T.T.B.b.D.Z.m.f.C > K.'.'._.F.0.e.1.I I P P 5.d.'._._._.'.).L.e._ M M ` e.0.s._.'.'.P.1 T C.W.R.T.T.B.b.D.Y.Y.b.B.T.",
"T.T.T.T.T.T.T.T.Y.Y.b.] % % $ > G.`._.u.` K 0.d.).U.F.0.P 9._.u.t.u.U.y.M m ) e.e.e.e.P _ u.).`.P.1 $ : : ..T.T.Y.D.x.B.T.Y.Y.Y.",
"T.T.T.T.T.T.T.T.T.Y.D.X.$ / <._ J ,.u.H ( F.P.).'.'.K.e.6.` ) Q I Q ^ ` 4.4.0.y.L.d.t.d.,.x y.3.J _ <./ =  .T.T.T.Y.Z.Y.T.T.T.Y.",
"T.T.R.Q.R.T.T.T.T.T.T.v.} ) 4.0.> l ` ,.i.'.'.'.'.'.K.t.d.6.n ~ ) ^ m ) e.e.p.J.K.K.J.K.r.,._ H - 9.9._ } l.T.T.T.T.T.T.T.T.T.T.",
"T.T.Q.^.R.T.T.R.R.T.T.Z.v.E ^ 4.2 2 b L.U.L.`.'.'.U.K.a._.p.^ y.u.u.^ 1.e.u.J.U.a.J.U.a.K.U.m 2 < 1.) I z.Z.T.T.T.T.T.T.T.T.T.T.",
"R.T.Q.^.R.T.R.~.Q.T.T.o.> 4.` n z 7 > G.y.I P.`.U.u.J.`.'.`.).`.`.`.).J.u.U.K.u.U.J.u.).`.L.1 6 z v ) 6.< ..T.T.T.T.T.T.T.T.T.T.",
"~.R.R.R.R.E.~.E.R.T.T.>.k M M m 2.~ k Q 6.L.`.a.) K._.'.'.L.a._.'.`.s.J.U.s.J.L._ r.U.'.p.! k Q 4.m m K k ;.T.T.T.T.T.T.T.T.T.T.",
"Q.R.T.T.T.R.Q.R.T.T.T.:.2 z P ` e.9.) m ! q.q.) M P.'.'.'.U.K.`.'.`.K.U.`.K.U.U.P ~ q.q.^ n ) 5.e.` Q z 2 X.T.T.T.T.T.T.T.T.T.T.",
"T.T.T.T.T.T.T.T.T.Y.v.{ $ K ` e.e.0.2.Q I I I M m p.P.`.K.P.'.'.'.'.'.U.G.`.U.s.M M I I I Q 2.0.e.e.1.P = Z z.Y.T.T.T.T.T.T.T.T.",
"T.T.T.T.T.T.T.T.T.Z.5 $ > 4.e.e.e.` K 0.e.e.e.` z v 6.L.Q q.'.`.`.`.'.y.P K.q.n z ) e.e.e.0.P ) e.e.e.6.< $ 3 C.T.T.T.T.T.T.T.T.",
"T.T.T.T.T.T.T.T.T.D.B I 5.P ) e.I ^ 0.e.e.e.e.` z z k q 4.d._.a.u.p._.J.5.e w z z ) e.e.e.e.0.) P 0.` P 4.~ v Z.T.T.T.T.T.T.T.T.",
"T.T.T.T.T.T.T.T.T.Z.a l Q 6 l ! m ^ e.e.4.^ e.9.` m k 7 Q 6.s.t.e.e.s.q.Q 0 g n ` 9.e.^ 2.e.e.` n ! b 2 Q b 8 C.T.T.T.T.T.T.T.T.",
"T.T.T.T.T.T.T.T.T.Z.5 < z $ ; 7 z ^ e.4.) ! e.e.e.~ P z Q ) 2.2.2.2.2.) Q n M ! e.e.e.~ ) 4.e.` z 7 < $ k 2 : C.T.T.T.T.T.T.T.T.",
"T.T.Y.Y.T.T.T.T.T.Z.p 6 k > = $ k ! 0.P ) e.e.e.e.e.` M 0.` z m m m z ) e.P ) e.e.e.e.e.` M 9.^ k = $ - k 6 5 C.T.T.T.T.T.T.T.T.",
"T.T.B.x.D.T.T.T.T.T.Z...- <.) k = 6 M 9.e.e.e.e.e.P ^ e.e.` m 9.e.9.M ) e.e.` M 0.e.e.e.e.9.K 7 = k ~ 4., { Z.Y.T.T.T.T.T.T.T.T.",
"T.T.B.k.D.T.Y.n.B.D.T R _ Q P z $ = , e l G 9.2.Q n ^ e.e.` m 0.e.e.M ) e.e.` z Q 1.q.H l e < = $ k K Q / R Z Z.T.T.T.T.T.T.T.T.",
"B.Y.Z.n.Y.D.B.M.B.Z.5 l ` m z z 2 < < < ; $ U P v ! 2.e.1.) ~ ` ` ` ~ ) 1.e.4.! n K U = = < < < 2 z z m ` H : C.T.T.T.T.T.T.T.T.",
"b.Y.T.T.T.B.b.Y.Y.N.5 < z z z k z z z z 6 + + < z 0.e.e.M ^ e.P M P 0.` m 0.e.0.b 2 + + 2 z z z z k z z z 2 : C.T.T.T.T.T.T.T.T.",
"Y.T.T.T.T.Y.Y.T.B.g.4 2 z z 7 $ k z z z 6 + + + - 5.e.0.M ^ e.e.e.e.e._ m 9.e.9.> + + + 2 z z z k = 2 z z 6 3 C.T.T.T.T.T.T.T.T.",
"T.T.T.T.T.T.T.T.Y.B.v.} ; ; 2 j z 7 ; k k g g 2 + 9 q q ; < l 9.e.q.x 9 ; q q q $ ; g g k z ; 7 z j 2 ; ; T v.Y.T.T.T.T.T.T.T.T.",
"T.T.T.T.T.T.T.T.T.T.T.v.{ : 2 z 7 2 2 z z z z j 2 2 2 2 + + $ L U L $ + + 2 2 2 2 7 z z z z 6 2 6 z 2 $ s :.T.T.T.T.T.T.T.T.T.T.",
"T.T.T.T.T.T.T.T.T.T.T.T.Z.4 ; g $ 2 z z z z z k k z z z ; = = = = = = = ; k z z k k z z z z z 2 $ 7 < : h.B.T.T.T.T.T.T.T.T.T.T.",
"T.T.T.T.T.T.T.T.T.T.T.T.Z.5 $ $ + 2 z z z z z 6 = k z z z z z z z z z z z z z z = 2 z z z z z 2 + $ $ 3 N.Y.T.T.T.T.T.T.T.T.T.T.",
"T.T.T.T.T.T.T.T.T.T.T.T.D.[ V g $ 2 z z z z ; 2 k z z z ; 6 z z z z z 7 ; k z z k 2 ; k z z z 2 $ 7 c ] Z.T.T.T.T.T.T.T.T.T.Y.T.",
"T.T.T.T.T.T.T.T.T.T.T.B.h.F N z 7 2 2 2 7 z $ 2 z z g < + 2 z z z z z 6 + < 7 z z 6 $ k g 2 2 2 7 z N S h.N.T.T.T.T.T.T.T.T.T.T.",
"T.T.T.T.T.T.T.T.T.Y.B.h.F v z z z 6 + + ; 7 $ ; g z 6 + + ; g z z z g < + + 2 z g < $ 7 < + + 2 z z z v S =.N.Y.T.T.T.T.Y.Z.Y.T.",
"T.T.T.T.T.T.T.T.T.D.+.S z z z z z 6 + + + + + + $ k 2 + + + $ k z k $ + + + < k $ + + + + + + 2 z z z z z A O.D.T.T.T.T.Y.x.B.Y.",
"T.T.T.T.T.T.T.T.T.D.+.S z z z z ; $ + + + + + + + $ #   + + $ k z k $ + +   @ $ + + + + + + + $ = k z z z A O.D.T.T.T.T.T.Y.B.b.",
"T.T.T.T.T.T.T.T.T.D.+.S z z z z $ + + + + + + + + + X . y u u < < < u u y . o + + + + + + + + + $ k z z z A O.D.T.T.T.T.T.T.D.B.",
"T.T.T.T.T.T.T.T.T.D.+.S z z z z $ + + + + + + + + + X . i f d * * * d f i . o + + + + + + + + + $ k z z z A O.D.T.T.T.T.T.T.T.T.",
"T.T.T.T.T.T.T.T.T.D.+.S z z z z ; + + + + + + + + + X . i i f f f f f d i . O + + + + + + + + + = k z z z A O.D.T.T.T.T.T.T.T.T.",
"T.T.T.T.T.T.T.T.T.D.+.S z z z z z 6 + + + + + + + + + # . t f f f f f t . # + + + + + + + + + 2 z z z z z A O.D.T.T.T.T.T.T.T.T.",
"T.T.T.T.T.T.T.T.T.Y.j.+.F v z z z k 7 $ + + + + + + + + X & r r r r r & X + + + + + + + + $ 7 k z z z v S O.g.D.T.T.T.T.T.T.T.T.",
"T.T.T.T.T.T.T.T.T.Y.M.k.+.S N z z z z 2 < < + + + + + + + X o o o o o X + + + + + + + < < 2 z z z z N S +.g.M.Y.T.T.T.T.T.T.T.T.",
"T.T.T.T.T.T.T.T.T.T.T.B.x.+.' N N v z z z z ; = = + + + + + + + + + + + + + + + = = ; k z z z v N N F O.k.B.T.T.T.T.T.T.T.T.T.T.",
"T.T.T.T.T.T.T.T.T.T.T.Y.Y.x.@.[ [ S v v v v z z k = + + + + + + + + + + + + + $ k z z z v v v A [ [ @.k.D.Y.T.T.T.T.T.T.T.T.T.T.",
"T.T.T.T.T.T.T.T.T.T.T.T.Y.D.B.N.g.+.' ' ' ' v z z k j j j j j j j j j j j j j k z z v F ' ' ' +.g.N.B.D.Y.T.T.T.T.T.T.T.T.T.T.T.",
"T.T.T.T.T.T.T.T.T.T.T.T.T.T.T.Y.B.n.x.@.@.@.S A A A N z z z z z z z z z z z N A A A S +.@.@.x.n.B.Y.T.T.T.T.T.T.T.T.T.T.T.T.T.T.",
"T.T.T.T.T.T.T.T.T.T.T.T.T.T.T.T.T.T.Y.n.b.x.=.@.@.@.#.W W W W W W W W W W W #.@.@.@.@.x.b.n.Y.T.T.T.T.T.T.T.T.T.T.T.T.T.T.T.T.T.",
"R.T.T.T.T.T.T.T.T.T.T.T.T.T.T.T.T.T.T.Y.Y.Y.Y.Y.Y.Y.Y.Y.Y.Y.Y.Y.Y.Y.Y.Y.Y.Y.Y.Y.Y.Y.Y.Y.Y.Y.T.T.T.T.T.T.T.T.T.T.T.T.T.T.T.T.T.T.",
"~.R.T.T.T.T.T.T.T.T.T.T.T.T.T.T.T.T.T.T.T.T.T.T.T.T.T.T.T.T.T.T.T.T.T.T.T.T.T.T.T.T.T.T.T.T.T.T.T.T.T.T.T.T.T.T.T.T.T.T.T.T.T.T.",
"}.{.[.[.{.{.[.[.[.[.[.[.[.[.[.[.[.[.[.[.[.[.[.[.[.[.[.[.[.[.[.[.[.[.[.[.[.[.[.[.[.[.[.[.[.[.[.[.[.[.[.[.[.[.[.[.T.T.T.T.T.T.T.T."
};
