/* XPM */
static char *item1730129773[] = {
/* columns rows colors chars-per-pixel */
"50 50 156 2 ",
"   c #161C2E",
".  c #1E2232",
"X  c #23292F",
"o  c #212432",
"O  c #2B2B33",
"+  c #2C2B3A",
"@  c #322E35",
"#  c #302D38",
"$  c #313533",
"%  c #393635",
"&  c #3B3E37",
"*  c #33303F",
"=  c #3C3438",
"-  c #443C3B",
";  c #4E3F3E",
":  c #3D4432",
">  c #4B463B",
",  c #51463C",
"<  c #4B5133",
"1  c #595937",
"2  c #66593E",
"3  c #646937",
"4  c #756A3F",
"5  c #707438",
"6  c #727938",
"7  c #3C3442",
"8  c #333848",
"9  c #433747",
"0  c #423B47",
"q  c #574540",
"w  c #484553",
"e  c #4D4F58",
"r  c #524551",
"t  c #574953",
"y  c #594A54",
"u  c #6A5145",
"i  c #745748",
"p  c #7D5C4B",
"a  c #62515A",
"s  c #6C585E",
"d  c #726141",
"f  c #7E6943",
"g  c #685561",
"h  c #6E5966",
"j  c #745D65",
"k  c #725A68",
"l  c #7A5D6B",
"z  c #776065",
"x  c #7B606C",
"c  c #6B7070",
"v  c #826946",
"b  c #947A48",
"n  c #8F6850",
"m  c #996E53",
"M  c #A27455",
"N  c #A57D51",
"B  c #AC7A58",
"V  c #82656C",
"C  c #836771",
"Z  c #8D6373",
"A  c #846B73",
"S  c #8E6F76",
"D  c #9B6975",
"F  c #877178",
"G  c #89757C",
"H  c #957376",
"J  c #987677",
"K  c #957479",
"L  c #98767B",
"P  c #9D7A7D",
"I  c #A56D78",
"U  c #AB6F7B",
"Y  c #A3737B",
"T  c #AD707B",
"R  c #A47E7E",
"E  c #AC797F",
"W  c #B0757D",
"Q  c #7F8639",
"!  c #9AA03C",
"~  c #B4B93F",
"^  c #9E804B",
"/  c #A2834B",
"(  c #A78C4B",
")  c #A79646",
"_  c #AA934A",
"`  c #B28357",
"'  c #BD8F56",
"]  c #BA9253",
"[  c #B6A847",
"{  c #B6B342",
"}  c #BABE6D",
"|  c #BBBF79",
" . c #C19455",
".. c #C49C54",
"X. c #C7AE4F",
"o. c #CBB54E",
"O. c #D6BC4F",
"+. c #C7A153",
"@. c #CDA554",
"#. c #D1AE52",
"$. c #D2B450",
"%. c #D5B850",
"&. c #D0CD46",
"*. c #D4C64B",
"=. c #D9C44E",
"-. c #DED44A",
";. c #E2DD48",
":. c #DCE242",
">. c #E6E746",
",. c #E7EB45",
"<. c #E9F044",
"1. c #ECF25B",
"2. c #D4D970",
"3. c #E0E566",
"4. c #E3E77D",
"5. c #EEF472",
"6. c #F0F57E",
"7. c #A57F80",
"8. c #A97D81",
"9. c #B37B81",
"0. c #8B8D97",
"q. c #AE8585",
"w. c #A58988",
"e. c #B58385",
"r. c #B88386",
"t. c #BA8788",
"y. c #B68989",
"u. c #B98D8B",
"i. c #B3908D",
"p. c #BF928E",
"a. c #B49490",
"s. c #B79994",
"d. c #B89B95",
"f. c #BEA9A4",
"g. c #C08F8D",
"h. c #C1928E",
"j. c #C39490",
"k. c #C59A94",
"l. c #C89E97",
"z. c #C89F98",
"x. c #C4A69E",
"c. c #CAA39B",
"v. c #CDAA9F",
"b. c #CEACA2",
"n. c #C0ADA8",
"m. c #D1B2A4",
"M. c #D4B7AE",
"N. c #D5BCB2",
"B. c #E2D88F",
"V. c #F2F696",
"C. c #F7F9B8",
"Z. c #E5D5CB",
"A. c #F9FBD0",
"S. c #FBFCDC",
"D. c #F1F1F2",
"F. c white",
/* pixels */
"h.j.j.j.j.u.C j.j.j.j.j.j.S i.k.j.j.j.j.u.x 9.t.r.r.r.9.C 8.h.j.j.j.j.u.C j.j.j.j.j.j.S i.j.d.g.r.r.",
"j.j.j.j.j.u.C j.j.j.j.j.j.S i.k.j.j.j.j.u.A u.j.j.j.j.g.Z q.j.j.j.j.j.u.C j.j.j.j.j.j.S i.k.h.h.h.h.",
"j.j.j.j.j.u.C j.j.j.j.j.j.S q.j.j.j.j.j.u.x j.j.j.j.j.j.S q.j.j.j.j.h.u.C j.j.j.j.j.j.S q.j.j.j.h.h.",
"j.j.j.j.j.u.C j.j.j.j.j.j.S q.j.j.j.j.j.u.C j.j.j.j.j.j.S q.j.j.j.j.j.u.C j.j.j.j.j.j.S q.j.j.j.h.k.",
"p.j.j.j.p.Y C j.j.j.j.j.j.S Y h.j.j.j.p.E C j.j.j.j.j.j.S Y u.j.h.k.h.E C j.j.j.j.j.j.S Y u.j.j.h.h.",
"V C C C C l C j.j.j.j.j.j.S l x C C C C l C j.j.j.j.j.j.S l C C C C V l C j.j.j.j.j.j.S l C C A A C ",
"y.u.x E y.D F v.j.j.j.j.j.S D e.x Y u.y.D C j.j.j.j.j.j.S D y.x Y u.y.D F v.j.j.j.j.j.S D e.x Y u.t.",
"p.j.x h.j.y.A v.j.j.j.j.j.S q.j.x y.p.j.y.C j.j.j.j.h.h.S q.h.x u.h.h.y.F v.j.j.j.j.j.S q.p.x y.h.h.",
"j.j.j.j.j.u.C j.j.j.j.j.j.S q.j.x x.j.j.u.F b.j.j.j.j.j.S q.j.j.j.j.j.u.C h.j.j.j.j.j.S q.j.l x.k.j.",
"j.j.u.j.j.u.F b.j.j.j.j.j.S q.j.j.j.j.j.u.C h.j.j.j.j.j.S q.h.h.j.j.j.i.F m.j.j.j.j.j.S q.j.j.l.h.h.",
"g.j.9.k.j.u.G N.j.j.j.j.j.S q.j.p.m.j.j.u.C j.j.j.j.j.j.S q.j.9.h.j.j.u.G N.h.j.j.j.j.S q.j.h.b.j.j.",
"W g.g.m.j.u.G N.j.j.j.j.j.S q.j.9.v.j.p.u.F b.j.j.j.j.j.S e.j.u.b.j.j.u.G N.h.j.j.j.j.S q.j.9.c.j.j.",
"U g.W v.j.u.G M.j.j.j.j.j.F q.j.p.j.j.j.u.F v.j.j.j.j.j.S q.j.E c.h.h.u.G M.j.j.j.j.j.S q.j.j.j.j.j.",
"U g.r.z.j.u.A v.j.j.j.j.j.H q.j.t.h.j.j.u.F v.p.j.j.j.j.S q.t 7 s h.j.u.A b.j.j.j.j.j.S q.j.t.h.j.j.",
"W g.h.c.j.u.A c.j.j.j.j.j.S q.j.E k.j.j.u.A v.j.j.j.j.j.S q.> ! 1 t j.i.A c.j.j.j.j.j.S q.j.E k.j.j.",
"U g.j.j.j.u.A z.j.j.j.j.j.S q.j.W l.j.j.u.A z.j.j.j.j.j.S r & -.;.~ s e.C c.j.j.j.j.j.S q.h.W l.j.j.",
"U p.j.j.j.u.A z.j.j.j.j.k.S q.j.r.g.j.j.u.C j.j.j.j.h.h.j 8 c u *.@.4 a A c.j.j.j.j.j.S q.j.r.h.j.j.",
"U p.j.j.j.u.C j.j.j.j.j.j.S q.j.j.j.j.j.u.C j.j.w.7 + + o w D.0.% > = V C j.j.j.j.j.j.S q.j.j.j.j.j.",
"U g.j.j.j.u.C j.j.j.j.j.j.S q.j.j.j.j.j.u.C j.z   6 2.C.4.Q e | ! . h.i.C j.j.j.j.j.j.S q.j.j.j.j.j.",
"T g.j.j.j.u.C 9.j.j.j.k.9.C q.j.j.j.j.j.y.V E o < <.A.F.F.5.[ X $ 0 j.u.x e.j.j.j.j.r.Z e.j.j.h.j.j.",
"g.j.j.j.k.y.k l C C A C l k 9.j.j.j.j.j.u.g 9 < :.<.A.m.Z.5.&.f . y.h.u.k x C C C C x k q.j.9.9.9.C ",
"j.j.j.j.p.u.l 8.u.r.Z K 8.V q.j.j.j.h.j   $ , _ 1 X . m B.1.,.@.> s h.u.l E i.e.Z K 9.x q.j.W W U k ",
"j.j.j.j.j.u.C p.j.j.L L j.S s.k.j.j.V : } 3.$.^   ( { o.o.<.-.#.v s j.u.C h.j.h.L L p.S s.k.E U U h ",
"j.j.j.j.j.u.C j.j.j.L L j.S d.k.j.q.& 2.F.C.,.)   O ^ :.<.<.=.@.v g j.u.C j.j.j.L L j.S s.l.W U 9.Z ",
"j.j.j.j.j.u.C j.j.j.P w.z.S n.c.h.t 5 V.S.6.B &.3 3 % d O.*.+.` i s j.u.C j.j.j.7.w.l.S n.z.W T U U ",
"k.j.j.j.j.u.C j.j.j.h.z.z.S n.z.h.t ( ,.<.<.X.n @ ~ 1 4 +.B B M - V j.u.C j.j.j.g.z.l.S n.z.W T U U ",
"k.j.j.j.k.u.C j.j.j.t.t.j.S f.c.j.t ^ ,.<.<.-.B m p   ~ ;.' B ,   j.j.u.C j.j.j.t.t.j.S n.z.T T U T ",
"k.j.j.j.j.u.C j.j.j.h.l.l.S d.k.h.a b O.,.<.O.o.<.<.<.<.>. .B m O J j.u.C j.j.j.g.k.l.S d.k.9.T T T ",
"k.j.j.j.j.u.C k.j.j.r.r.j.S d.k.j.q.> +.=.;.<.<.<.,.<.<.=.' B M @ g j.u.A j.j.j.9.r.j.S d.k.9.T T T ",
"k.j.j.j.j.y.C j.j.j.t.t.j.H i.k.j.u.* ^ @.@.%.=.;.-.;.O.@.` B i   R j.u.C j.j.j.g.t.j.S i.k.t.9.T T ",
"k.j.j.j.j.u.C j.j.j.j.j.j.S i.k.h.R z $ / @.@.@...@.@...` B u . 7 L j.u.C j.j.j.j.j.j.S i.k.j.g.9.9.",
"k.j.j.j.j.y.C j.j.j.j.j.j.S i.k.h.R S s . = 2 N ] ` N q ; # + 0 x L j.u.C j.j.j.j.j.j.S u.k.j.j.j.j.",
"j.j.j.j.j.u.C j.j.j.j.j.j.S q.j.j.j.q.S V r 9 9 9 9 0 y t j S 7.7.u.j.u.C j.j.j.j.j.u.7.7.p.p.j.j.j.",
"j.j.j.j.j.u.C j.j.j.j.j.j.S q.j.j.j.p.u.` h 7.S G S S S g K ` s.w.u.j.u.C j.j.j.j.j.u.7.8.p.j.j.j.j.",
"u.p.j.j.j.E C j.j.j.j.j.j.S L g.j.j.j.j.8.C s.j.j.j.j.j.S Y u.j.j.g.p.8.C p.j.j.j.j.j.S 8.g.j.j.j.h.",
"C A C C x l C j.j.j.j.j.j.S l V C C A x x C j.j.j.j.j.j.S l C C C C C l C j.j.j.j.j.j.S k x C A Z Z ",
"r.u.x 8.r.D F v.j.j.j.j.j.S D e.t.u.u.y.D C j.j.j.j.j.j.S D e.x 8.y.y.8.x c.j.j.j.j.k.Z D y.u.u.t.r.",
"p.j.l p.k.y.A b.j.j.j.j.j.S q.j.j.j.j.j.y.C j.j.j.j.j.j.S q.j.l y.g.j.y.A b.j.j.j.j.j.F 8.j.j.j.j.j.",
"j.j.x j.j.u.x j.j.j.j.j.j.S q.j.j.j.j.j.u.A v.j.j.j.j.j.S q.j.j.j.j.j.u.C u.j.j.j.j.p.S 8.j.j.j.j.j.",
"j.j.p.j.j.u.G b.j.j.j.j.j.S q.j.j.h.g.u.9.A j.j.j.j.j.j.S q.j.g.j.j.j.u.7.f.j.j.j.j.u.7.q.j.j.p.g.t.",
"u.j.9.k.j.u.G N.j.j.j.j.j.S q.j.j.9.W T U C j.j.j.j.j.j.S q.j.9.j.j.j.u.7.N.j.j.j.j.j.S q.j.h.9.U U ",
"9.g.u.b.j.u.G N.j.j.j.j.j.S q.j.9.T T T I S v.j.j.j.j.j.S e.j.t.b.j.j.u.c N.j.j.j.j.j.S q.j.9.9.U U ",
"U g.9.b.j.u.F M.j.j.j.j.j.S q.j.W T T T I F b.j.j.j.j.j.F e.j.W c.j.j.i.7.n.j.j.j.j.j.S 9.g.9.9.U U ",
"T g.9.c.p.u.F b.j.j.j.j.j.S q.j.W T T T I A v.j.j.j.j.j.S q.j.e.k.j.p.u.A b.j.j.j.j.j.S q.g.9.I U U ",
"T g.j.c.j.u.A c.j.j.j.j.j.S q.j.W T T T I F b.j.j.j.j.j.H q.j.j.c.j.j.u.A b.g.j.j.j.j.S q.j.9.8.9.U ",
"T g.j.j.j.u.A z.j.j.j.j.j.S q.j.W U T U D C c.j.j.j.j.j.F q.j.j.j.j.j.u.A z.j.j.j.j.j.S q.j.9.U U U ",
"T g.j.j.j.y.A z.j.j.j.j.j.S q.j.W U T D l C j.j.j.j.j.j.S q.j.j.j.j.j.u.A z.j.j.j.j.j.S 9.j.U U U D ",
"T g.j.j.k.u.C j.j.j.j.j.j.S q.j.E T U l h C j.j.j.j.j.j.S a.j.j.j.j.j.i.C j.j.j.j.j.j.S y.g.T U U k ",
"T g.j.j.j.u.C j.j.j.j.j.j.Z q.j.E U T k h C j.j.j.j.j.j.S d.k.j.j.j.j.u.C k.j.j.j.j.j.7.7.p.9.I U h ",
"T g.j.h.j.u.V r.j.j.j.j.t.C e.j.W U U k h l r.j.j.j.j.r.Z d.l.h.j.j.j.u.x 9.j.j.j.j.9.Z q.p.9.8.9.h "
};
