/* XPM */
static char * Fall (32x32)_xpm[] = {
"64 64 10 1",
" 	c None",
".	c #211F30",
"+	c #E44A4A",
"@	c #72A11D",
"#	c #CC3048",
"$	c #9C1B4D",
"%	c #28860F",
"&	c #076029",
"*	c #FFFFFF",
"=	c #A4CC42",
"                                                                ",
"                                                                ",
"                                                                ",
"                                                                ",
"                                                                ",
"                                                                ",
"                                                                ",
"                                                                ",
"                                                                ",
"                                                                ",
"                                                                ",
"                                                                ",
"          ......      ............      ........                ",
"          ......      ............      ........                ",
"        ..++++++..  ..@@@@@@@@@@@@..  ..@@@@@@@@..              ",
"        ..++++++..  ..@@@@@@@@@@@@..  ..@@@@@@@@..              ",
"        ..######$$................................              ",
"        ..######$$................................              ",
"          ....$$..$$##++++++##++########++##++++++..            ",
"          ....$$..$$##++++++##++########++##++++++..            ",
"        ..##$$........$$$$$$##$$########$$##$$$$....            ",
"        ..##$$........$$$$$$##$$########$$##$$$$....            ",
"        ..++##..$$$$##############################..            ",
"        ..++##..$$$$##############################..            ",
"        ..++##......................................            ",
"        ..++##......................................            ",
"        ..++....%%%%%%%%&&********&&%%&&********&&%%..          ",
"        ..++....%%%%%%%%&&********&&%%&&********&&%%..          ",
"          ....%%@@@@@@@@%%&&&&&&&&%%@@%%&&&&&&&&%%@@..          ",
"          ....%%@@@@@@@@%%&&&&&&&&%%@@%%&&&&&&&&%%@@..          ",
"            ..@@@@@@@@@@@@@@@@@@@@@@@@@@@@@@@@@@@@@@..          ",
"            ..@@@@@@@@@@@@@@@@@@@@@@@@@@@@@@@@@@@@@@..          ",
"            ..@@@@@@@@@@&&&&&&&&&&&&&&&&&&&&&&&&@@@@..          ",
"            ..@@@@@@@@@@&&&&&&&&&&&&&&&&&&&&&&&&@@@@..          ",
"            ..@@@@@@@@%%@@@@@@@@@@@@@@@@@@@@@@@@%%@@..          ",
"            ..@@@@@@@@%%@@@@@@@@@@@@@@@@@@@@@@@@%%@@..          ",
"            ......%%@@@@@@@@@@@@%%%%%%%%%%@@@@@@@@@@..          ",
"            ......%%@@@@@@@@@@@@%%%%%%%%%%@@@@@@@@@@..          ",
"          ..%%@@@@..%%@@@@@@@@@@@@@@@@@@@@@@@@@@%%..%%..        ",
"          ..%%@@@@..%%@@@@@@@@@@@@@@@@@@@@@@@@@@%%..%%..        ",
"          ..%%@@@@@@@@@@@@@@@@@@@@@@@@@@@@@@%%%%..%%%%..        ",
"          ..%%@@@@@@@@@@@@@@@@@@@@@@@@@@@@@@%%%%..%%%%..        ",
"          ..%%@@@@@@@@@@@@@@@@@@@@@@@@@@@@@@....%%%%%%..        ",
"          ..%%@@@@@@@@@@@@@@@@@@@@@@@@@@@@@@....%%%%%%..        ",
"            ..%%%%@@@@@@@@@@==============@@@@..%%%%..          ",
"            ..%%%%@@@@@@@@@@==============@@@@..%%%%..          ",
"              ..........@@==================@@......            ",
"              ..........@@==================@@......            ",
"                  ..%%@@@@==================@@..                ",
"                  ..%%@@@@==================@@..                ",
"                  ..%%@@@@==================@@..                ",
"                  ..%%@@@@==================@@..                ",
"                  ..%%@@@@@@@@..@@==========@@..                ",
"                  ..%%@@@@@@@@..@@==========@@..                ",
"                    ..%%%%@@@@........@@==@@@@%%..              ",
"                    ..%%%%@@@@........@@==@@@@%%..              ",
"                      ..%%@@@@..      ....@@@@@@..              ",
"                      ..%%@@@@..      ....@@@@@@..              ",
"                        ......        ..%%@@@@@@..              ",
"                        ......        ..%%@@@@@@..              ",
"                                        ..%%@@@@..              ",
"                                        ..%%@@@@..              ",
"                                          ......                ",
"                                          ......                "};
